# xmcd CD database file
#
# Track frame offsets:
#	150
#	55236
#	100219
#	143248
#	183390
#	215925
#	261704
#	273793
#	311674
#
# Disc length: 4601 seconds
#
# Revision: 0
# Processed by: cddbd v1.5.1PL0 Copyright (c) Steve Scherf et al.
# Submitted via: CDex 1.51
#
DISCID=9011f709
DTITLE=Pat Metheny Group - The PMG Companion, Volume 1 (1976 - 1980) 3/3
DYEAR=2005
DGENRE=Jazz
TTITLE0=Mars (later retitled Close To Home) (Mays)
TTITLE1=The Magician's Theatre (Metheny-Mays)
TTITLE2=Old Folks (Willard Robinson-Dedette Lee Hill)
TTITLE3=Autumn Leaves (Joseph Kosma-Johnny Mercer)
TTITLE4=Hermitage (Metheny)
TTITLE5=Sirabhorn (Metheny)
TTITLE6=solo guitar improvisation (Metheny)
TTITLE7=The Windup (Keith Jarrett)
TTITLE8=Down Here On The Ground (Wes Montgomery)
EXTD=YEAR: 2005
EXTT0=
EXTT1=
EXTT2=
EXTT3=
EXTT4=
EXTT5=
EXTT6=
EXTT7=
EXTT8=
PLAYORDER=
